<?xml version="1.0" encoding="utf-8"?>
<!-- Generator: Adobe Illustrator 25.2.1, SVG Export Plug-In . SVG Version: 6.00 Build 0)  -->
<svg version="1.1" id="OBJECTS" xmlns="http://www.w3.org/2000/svg" xmlns:xlink="http://www.w3.org/1999/xlink" x="0px" y="0px"
	 viewBox="0 0 72 72.78" style="enable-background:new 0 0 72 72.78;" xml:space="preserve">
<style type="text/css">
	.st0{fill:#292D36;}
</style>
<path class="st0" d="M72,32.8v-0.09l-10.13-5.44l-3.69-1.99l-3.38-1.81l-3.7-1.99l-9.27-4.98l0.09-5.36
	C41.86,6.98,39.04,0.16,35.67,0h-0.09c-0.01,0-0.02,0-0.04,0h-0.04c-3.43,0.05-6.12,7.11-6.06,11.34l0.21,4.97L0,33.51
	c0.03,1.58,0.65,2.98,1.65,4.01c1.1,1.14,2.63,1.84,4.29,1.84c0.45,0,0.91-0.06,1.36-0.16l4.95-1.16c1.21-0.29,2.42-0.54,3.63-0.76
	l0,2.2c0,0.5,0.41,0.91,0.91,0.91l1.12,0c0.5,0,0.91-0.41,0.91-0.91l0-2.68c0,0,0,0,0,0c0.86-0.13,1.71-0.24,2.57-0.34c0,0,0,0,0,0
	l0,2.12c0,0.5,0.41,0.91,0.91,0.91l1.12,0c0.5,0,0.91-0.41,0.91-0.91l0-2.39c2.04-0.15,4.1-0.23,6.15-0.22l0.4,9.31l0.13,3.11
	l0.39,9.19l-8.8,9.98c-0.79,0.89,0.02,2.28,1.19,2.03l9.97-2.15c0.17,0.47,0.34,0.94,0.5,1.39c0.57,1.54,1.1,2.88,1.45,3.75
	c0,0,0,0,0,0c0.03,0.08,0.06,0.15,0.09,0.22c0,0,1.33-1.43,2.46-4.2c0.04-0.09,0.07-0.18,0.11-0.28c0.13-0.34,0.26-0.69,0.4-1.04
	l10.65,2.26c1.17,0.25,1.97-1.14,1.18-2.03l-9.46-10.65l0.16-8.75l0.05-3.11l0.04-2.28l0.06-3.11l0.04-2.28l0.02-0.93h0l0.07,0
	c1.83-0.09,3.67-0.11,5.5-0.06h0l0,1.64c0,0.82,0.66,1.47,1.48,1.47c0.81,0,1.47-0.66,1.47-1.48l0-1.51
	c0.86,0.05,1.72,0.12,2.58,0.2h0l0,2.2c0,0.82,0.66,1.47,1.48,1.47c0.81,0,1.47-0.66,1.47-1.48l0-1.86
	c1.48,0.19,2.96,0.43,4.43,0.71l4.77,0.91l0.1,0.02l0.12,0.03c0.09,0.02,0.18,0.03,0.27,0.04c0,0,0.01,0,0.01,0
	c0.09,0.01,0.19,0.02,0.28,0.03c0.01,0,0.02,0,0.02,0c0.03,0,0.06,0.01,0.1,0.01c0.01,0,0.02,0,0.03,0c0.05,0,0.1,0,0.15,0.01
	c0.05,0,0.09,0,0.13,0h0.14c0.01,0,0.03,0,0.04,0c0.04,0,0.07,0,0.1,0c0.03,0,0.06,0,0.09,0c0.01,0,0.02,0,0.04,0
	c0.01,0,0.02,0,0.02,0h0.02c0.2-0.01,0.41-0.03,0.6-0.06c0.18-0.03,0.35-0.07,0.53-0.11c0.12-0.03,0.25-0.07,0.37-0.11
	c0.05-0.01,0.09-0.03,0.14-0.04c0.13-0.05,0.26-0.1,0.39-0.16c0.03-0.01,0.06-0.03,0.09-0.04c0.13-0.06,0.26-0.13,0.39-0.2
	c0.02-0.01,0.04-0.02,0.06-0.04c0.14-0.08,0.27-0.16,0.4-0.24c0.01-0.01,0.02-0.01,0.02-0.02c0.42-0.28,0.8-0.61,1.14-0.99
	c0,0,0,0-0.01,0c0,0,0,0,0,0C71.44,35.68,72,34.31,72,32.8z M54.65,26.88c0.99,0.6,0.45,2.13-0.7,1.97
	c-4.04-0.57-9.23-0.9-12.33,0.27l0.17-10.04L54.65,26.88z M33.28,3.11l4.58-0.07c0.47,0.58,0.81,1.27,1.06,2.04l-6.63,0.11
	C32.48,4.39,32.81,3.7,33.28,3.11z M17.84,28.91c-1.15,0.17-1.7-1.36-0.71-1.96l12.66-7.71l0.41,9.83
	C27.1,27.92,21.87,28.33,17.84,28.91z M28.87,66.07c-0.79,0.13-1.32-0.8-0.79-1.4l3.64-4.18c0.07,0.35,0.15,0.71,0.24,1.09
	c0.01,0.03,0.02,0.06,0.02,0.1c0.08,0.34,0.18,0.69,0.27,1.05c0.08,0.29,0.17,0.59,0.26,0.89c0.03,0.09,0.05,0.17,0.07,0.25
	c0.13,0.44,0.27,0.88,0.42,1.32c0.03,0.12,0.05,0.18,0.05,0.18L28.87,66.07z M44.5,64.63c0.53,0.6,0.01,1.54-0.78,1.41l-4.28-0.66
	c0,0,0,0,0-0.01c0,0,0-0.01,0.01-0.02c0-0.01,0.01-0.02,0.01-0.04c0.01-0.02,0.02-0.05,0.03-0.08c0.01-0.03,0.02-0.07,0.04-0.12
	c0.02-0.06,0.04-0.12,0.06-0.19c0.03-0.08,0.06-0.16,0.08-0.24c0.01-0.04,0.03-0.09,0.05-0.13c0.34-0.98,0.87-2.66,1.18-4.17
	L44.5,64.63z"/>
</svg>
